<?xml version="1.0" encoding="UTF-8" standalone="no"?>
<!DOCTYPE svg PUBLIC "-//W3C//DTD SVG 1.1//EN" "http://www.w3.org/Graphics/SVG/1.1/DTD/svg11.dtd">
<svg width="100%" height="100%" viewBox="0 0 3300 700" version="1.1" xmlns="http://www.w3.org/2000/svg" xmlns:xlink="http://www.w3.org/1999/xlink" xml:space="preserve" xmlns:serif="http://www.serif.com/" style="fill-rule:evenodd;clip-rule:evenodd;stroke-linejoin:round;stroke-miterlimit:2;">
    <g transform="matrix(46.4539,0,0,46.4539,-64.9793,-230.03)">
        <g id="SvgjsG2732">
            <path d="M8.36,5C9.947,5 11.227,5.457 12.2,6.37C13.173,7.283 13.66,8.5 13.66,10.02C13.66,11.54 13.18,12.753 12.22,13.66C11.26,14.567 9.973,15.02 8.36,15.02L4.54,15.02L4.54,19.1C4.54,19.287 4.47,19.45 4.33,19.59C4.19,19.73 4.027,19.8 3.84,19.8L2.32,19.8C2.133,19.8 1.97,19.73 1.83,19.59C1.69,19.45 1.62,19.287 1.62,19.1L1.62,12.9C1.62,12.713 1.69,12.55 1.83,12.41C1.97,12.27 2.133,12.2 2.32,12.2L8.24,12.2C9.133,12.2 9.773,12.007 10.16,11.62C10.547,11.273 10.74,10.747 10.74,10.04C10.74,9.333 10.54,8.79 10.14,8.41C9.74,8.03 9.107,7.84 8.24,7.84L2.32,7.84C2.133,7.84 1.97,7.77 1.83,7.63C1.69,7.49 1.62,7.327 1.62,7.14L1.62,5.7C1.62,5.513 1.69,5.35 1.83,5.21C1.97,5.07 2.133,5 2.32,5L8.36,5ZM29.44,5C29.627,5 29.79,5.07 29.93,5.21C30.07,5.35 30.14,5.513 30.14,5.7L30.14,19.1C30.14,19.287 30.07,19.45 29.93,19.59C29.79,19.73 29.627,19.8 29.44,19.8L27.92,19.8C27.72,19.8 27.553,19.73 27.42,19.59C27.287,19.45 27.22,19.287 27.22,19.1L27.22,10.06L23.52,14.82C23.373,14.993 23.187,15.08 22.96,15.08C22.853,15.08 22.747,15.057 22.64,15.01C22.533,14.963 22.453,14.893 22.4,14.8L15.84,6.12C15.76,6.027 15.713,5.91 15.7,5.77C15.687,5.63 15.713,5.503 15.78,5.39C15.847,5.277 15.933,5.183 16.04,5.11C16.147,5.037 16.267,5 16.4,5L18.16,5C18.387,5 18.573,5.093 18.72,5.28L22.96,10.88L27.1,5.28C27.247,5.093 27.44,5 27.68,5L29.44,5ZM17.92,14.7C18.107,14.7 18.27,14.767 18.41,14.9C18.55,15.033 18.62,15.2 18.62,15.4L18.62,19.1C18.62,19.287 18.55,19.45 18.41,19.59C18.27,19.73 18.107,19.8 17.92,19.8L16.4,19.8C16.213,19.8 16.05,19.73 15.91,19.59C15.77,19.45 15.7,19.287 15.7,19.1L15.7,15.4C15.7,15.2 15.77,15.033 15.91,14.9C16.05,14.767 16.213,14.7 16.4,14.7L17.92,14.7ZM42.42,13.56C42.62,13.56 42.787,13.627 42.92,13.76C43.053,13.893 43.12,14.053 43.12,14.24L43.12,15.6C43.12,15.787 43.053,15.947 42.92,16.08C42.787,16.213 42.62,16.28 42.42,16.28L41.62,16.28L41.62,18.98C41.62,19.167 41.55,19.33 41.41,19.47C41.27,19.61 41.107,19.68 40.92,19.68L39.42,19.68C39.233,19.68 39.07,19.61 38.93,19.47C38.79,19.33 38.72,19.167 38.72,18.98L38.72,16.28L33.08,16.28C32.893,16.28 32.73,16.213 32.59,16.08C32.45,15.947 32.38,15.787 32.38,15.6L32.38,14.12C32.38,13.987 32.42,13.86 32.5,13.74L38.08,5.32C38.133,5.227 38.213,5.15 38.32,5.09C38.427,5.03 38.54,5 38.66,5L40.92,5C41.107,5 41.27,5.07 41.41,5.21C41.55,5.35 41.62,5.513 41.62,5.7L41.62,13.56L42.42,13.56ZM35.8,13.56L38.72,13.56L38.72,9.24L35.8,13.56ZM52.26,5C53.847,5 55.127,5.457 56.1,6.37C57.073,7.283 57.56,8.5 57.56,10.02C57.56,11.54 57.08,12.753 56.12,13.66C55.16,14.567 53.873,15.02 52.26,15.02L48.44,15.02L48.44,19.1C48.44,19.287 48.37,19.45 48.23,19.59C48.09,19.73 47.927,19.8 47.74,19.8L46.22,19.8C46.033,19.8 45.87,19.73 45.73,19.59C45.59,19.45 45.52,19.287 45.52,19.1L45.52,12.9C45.52,12.713 45.59,12.55 45.73,12.41C45.87,12.27 46.033,12.2 46.22,12.2L52.14,12.2C53.033,12.2 53.673,12.007 54.06,11.62C54.447,11.273 54.64,10.747 54.64,10.04C54.64,9.333 54.44,8.79 54.04,8.41C53.64,8.03 53.007,7.84 52.14,7.84L46.22,7.84C46.033,7.84 45.87,7.77 45.73,7.63C45.59,7.49 45.52,7.327 45.52,7.14L45.52,5.7C45.52,5.513 45.59,5.35 45.73,5.21C45.87,5.07 46.033,5 46.22,5L52.26,5ZM72.2,5.38C72.267,5.5 72.297,5.627 72.29,5.76C72.283,5.893 72.24,6.013 72.16,6.12L66.62,14.12L66.62,19.26C66.62,19.447 66.55,19.61 66.41,19.75C66.27,19.89 66.107,19.96 65.92,19.96L64.38,19.96C64.18,19.96 64.01,19.89 63.87,19.75C63.73,19.61 63.66,19.447 63.66,19.26L63.66,13.4C63.66,13.267 63.707,13.133 63.8,13L69.14,5.3C69.207,5.207 69.29,5.133 69.39,5.08C69.49,5.027 69.6,5 69.72,5L71.58,5C71.713,5 71.837,5.033 71.95,5.1C72.063,5.167 72.147,5.26 72.2,5.38ZM63.78,9.78C63.727,9.9 63.643,9.993 63.53,10.06C63.417,10.127 63.293,10.16 63.16,10.16L61.3,10.16C61.06,10.16 60.86,10.06 60.7,9.86L58.1,6.12C58.033,6.013 57.997,5.893 57.99,5.76C57.983,5.627 58.007,5.5 58.06,5.38C58.113,5.26 58.197,5.167 58.31,5.1C58.423,5.033 58.547,5 58.68,5L60.56,5C60.787,5 60.98,5.1 61.14,5.3L63.74,9.04C63.807,9.147 63.843,9.267 63.85,9.4C63.857,9.533 63.833,9.66 63.78,9.78Z" style="fill:url(#_Linear1);fill-rule:nonzero;"/>
        </g>
    </g>
    <defs>
        <linearGradient id="_Linear1" x1="0" y1="0" x2="1" y2="0" gradientUnits="userSpaceOnUse" gradientTransform="matrix(70.6709,0,0,70.6709,1.62,5)"><stop offset="0" style="stop-color:rgb(45,56,138);stop-opacity:1"/><stop offset="1" style="stop-color:rgb(0,174,239);stop-opacity:1"/></linearGradient>
    </defs>
</svg>
